Coordinates
version=1
nRows=42
nColumns=11
inDegrees=yes

Units are S.I. units (second, meters, Newtons, ...)
If the header above contains a line with 'inDegrees', this indicates whether rotational values are in degrees (yes) or radians (no).

endheader
time	pelvis_tilt	pelvis_tx	pelvis_ty	hip_flexion_l	hip_flexion_r	knee_angle_l	knee_angle_r	ankle_angle_l	ankle_angle_r	lumbar_extension
      8.78000000	     40.90938233	      0.62989989	      1.11447347	     32.41996045	     28.98176469	    -68.39809461	    -60.31042881	    -20.87652388	    -27.26798290	    -45.41946545
      8.79000000	     40.91891034	      0.62981182	      1.11429606	     32.44369447	     28.99713022	    -68.42596962	    -60.40023574	    -20.87374701	    -27.26504752	    -45.43947677
      8.80000000	     40.91091918	      0.62980575	      1.11430625	     32.44690474	     28.98611932	    -68.40900779	    -60.44401606	    -20.87265459	    -27.26371361	    -45.43179793
      8.81000000	     40.91311704	      0.62980591	      1.11439104	     32.43717581	     28.96250243	    -68.39349544	    -60.50292665	    -20.89783681	    -27.08350575	    -45.43675194
      8.82000000	     40.85424365	      0.62978246	      1.11423363	     32.51972106	     29.07794617	    -68.40290384	    -60.64244064	    -20.90044092	    -27.22547267	    -45.37665315
      8.83000000	     40.84565265	      0.62980770	      1.11426964	     32.51572230	     29.05651839	    -68.38179467	    -60.70014094	    -20.89968593	    -27.22289841	    -45.36667657
      8.84000000	     40.84526830	      0.62979481	      1.11434812	     32.50772273	     29.05215578	    -68.36340327	    -60.77991372	    -20.90140269	    -27.21536561	    -45.36655417
      8.85000000	     40.87729291	      0.62973974	      1.11440574	     32.46803734	     29.00128456	    -68.34800494	    -60.87914477	    -20.90202211	    -27.02074860	    -45.40834380
      8.86000000	     40.86908164	      0.62972687	      1.11438322	     32.48072241	     29.00739072	    -68.34356938	    -60.97585926	    -20.90760094	    -27.02922183	    -45.40533260
      8.87000000	     40.82357733	      0.62971898	      1.11435721	     32.53659233	     29.05829917	    -68.34057544	    -61.08618539	    -20.96125037	    -27.16268347	    -45.36102336
      8.88000000	     40.81618419	      0.62971604	      1.11435780	     32.54289955	     29.06336926	    -68.33577510	    -61.20906614	    -20.89004109	    -27.06418038	    -45.35503020
      8.89000000	     40.81335785	      0.62969263	      1.11436755	     32.54425117	     29.06072377	    -68.32707361	    -61.32870029	    -20.88809429	    -27.06026387	    -45.35243329
      8.90000000	     40.77681347	      0.62967245	      1.11426268	     32.59605667	     29.10570623	    -68.33175006	    -61.46773212	    -20.87750211	    -26.93865119	    -45.32302271
      8.91000000	     40.77176588	      0.62966535	      1.11431565	     32.59587007	     29.09757152	    -68.32356410	    -61.56990219	    -20.88666387	    -26.93380872	    -45.31740275
      8.92000000	     40.77018339	      0.62965904	      1.11438176	     32.58867689	     29.08533242	    -68.30972715	    -61.68084600	    -20.89955193	    -26.92537084	    -45.31531684
      8.93000000	     40.74343453	      0.62963438	      1.11435073	     32.61159399	     29.10842421	    -68.29287401	    -61.80238018	    -20.96058274	    -26.75511016	    -45.29934247
      8.94000000	     40.74591398	      0.62958243	      1.11431784	     32.61826446	     29.11306456	    -68.29505407	    -61.94692547	    -20.95366206	    -26.74973916	    -45.30728854
      8.95000000	     40.74153264	      0.62955319	      1.11428208	     32.62424443	     29.11621255	    -68.29138976	    -62.05881020	    -20.95080418	    -26.73420594	    -45.30679182
      8.96000000	     40.67755053	      0.62956059	      1.11421758	     32.70219989	     29.19292564	    -68.29401091	    -62.20157019	    -20.93632794	    -26.57574523	    -45.24483045
      8.97000000	     40.67516020	      0.62954997	      1.11425144	     32.69456760	     29.17962520	    -68.27820537	    -62.31380755	    -20.94094696	    -26.58588255	    -45.24297914
      8.98000000	     40.67591761	      0.62949835	      1.11426272	     32.69425559	     29.18166153	    -68.27360382	    -62.44294138	    -20.94355015	    -26.58724393	    -45.25246190
      8.99000000	     40.69729904	      0.62947367	      1.11439753	     32.65130613	     29.14319906	    -68.24796094	    -62.55417435	    -20.96540480	    -26.46434951	    -45.28289431
      9.00000000	     40.69601617	      0.62939992	      1.11423165	     32.67599366	     29.16680201	    -68.26656066	    -62.70265498	    -20.96876340	    -26.46078448	    -45.29137936
      9.01000000	     40.67418557	      0.62949093	      1.11449921	     32.65700915	     29.14737506	    -68.22333429	    -62.77526537	    -20.98047400	    -26.45502888	    -45.25746677
      9.02000000	     40.61645521	      0.62945388	      1.11435013	     32.73915528	     29.24038311	    -68.23515756	    -62.93891795	    -20.99869865	    -26.38285843	    -45.21056613
      9.03000000	     40.61712912	      0.62940167	      1.11427612	     32.74485153	     29.25602247	    -68.23519991	    -63.07609396	    -21.00210670	    -26.37811332	    -45.21763943
      9.04000000	     40.57756478	      0.62937946	      1.11421824	     32.79310533	     29.32127886	    -68.23544242	    -63.20797940	    -21.08342507	    -26.26015407	    -45.18388788
      9.05000000	     40.56942950	      0.62941279	      1.11435473	     32.78150714	     29.31064977	    -68.21220580	    -63.30596093	    -21.07912578	    -26.26049941	    -45.17143837
      9.06000000	     40.57438019	      0.62930833	      1.11420172	     32.79992893	     29.33146476	    -68.22917550	    -63.42127982	    -21.08177108	    -26.25727870	    -45.19143930
      9.07000000	     40.56381363	      0.62931979	      1.11424296	     32.80322313	     29.33190396	    -68.22048453	    -63.50555729	    -21.08120365	    -26.25000128	    -45.18148801
      9.08000000	     40.56172476	      0.62930357	      1.11424812	     32.80638137	     29.33691297	    -68.22155129	    -63.60523236	    -21.08101522	    -26.23946476	    -45.17936706
      9.09000000	     40.50773344	      0.62932804	      1.11425988	     32.85649822	     29.39318562	    -68.20708698	    -63.69222436	    -21.08737462	    -26.11468234	    -45.12672569
      9.10000000	     40.50985017	      0.62933160	      1.11425697	     32.85407283	     29.38629889	    -68.21115690	    -63.75557925	    -21.07946237	    -26.11696886	    -45.12687372
      9.11000000	     40.51607589	      0.62926731	      1.11414315	     32.86264481	     29.39754882	    -68.22404016	    -63.84993468	    -21.07720944	    -26.11949959	    -45.14137608
      9.12000000	     40.50704330	      0.62929936	      1.11426111	     32.85704172	     29.38777458	    -68.20609255	    -63.88727135	    -21.07713241	    -26.12029817	    -45.13579653
      9.13000000	     40.51282848	      0.62924313	      1.11414934	     32.86400821	     29.40057104	    -68.21527888	    -63.97186776	    -21.07904399	    -26.12019032	    -45.14596437
      9.14000000	     40.49928593	      0.62927354	      1.11434054	     32.84672293	     29.38682603	    -68.17920403	    -63.98552297	    -21.08181038	    -26.11736610	    -45.13244855
      9.15000000	     40.50830240	      0.62925087	      1.11426262	     32.85636056	     29.38908308	    -68.19759610	    -64.03748518	    -21.08164353	    -26.11750774	    -45.14319897
      9.16000000	     40.50680680	      0.62924302	      1.11427908	     32.85411679	     29.40357760	    -68.19166042	    -64.10215614	    -21.08190548	    -26.11485214	    -45.14596072
      9.17000000	     40.50422305	      0.62920223	      1.11425505	     32.85974945	     29.40744906	    -68.18786790	    -64.11653393	    -21.08116562	    -26.11490365	    -45.14790249
      9.18000000	     40.49886594	      0.62918986	      1.11419052	     32.87759226	     29.42196371	    -68.20267112	    -64.14536104	    -21.07449643	    -26.10878028	    -45.14799713
      9.19000000	     40.49387405	      0.62920403	      1.11422597	     32.87305765	     29.42135442	    -68.18990499	    -64.15156231	    -21.07204146	    -26.10793512	    -45.14084138
